<mxfile host="app.diagrams.net" modified="2022-09-03T03:14:50.371Z" agent="5.0 (Windows NT 10.0; Win64; x64) AppleWebKit/537.36 (KHTML, like Gecko) Chrome/104.0.5112.102 Safari/537.36 Edg/104.0.1293.70" etag="0zq6etOGt6Ww6f03T3S_" version="20.0.4" type="github" pages="4">
  <diagram id="wjAvKNhvG2bldBXunozt" name="流程图">
    <mxGraphModel dx="1422" dy="762" grid="1" gridSize="10" guides="1" tooltips="1" connect="1" arrows="1" fold="1" page="1" pageScale="1" pageWidth="827" pageHeight="1169" math="0" shadow="0">
      <root>
        <mxCell id="0" />
        <mxCell id="1" parent="0" />
        <mxCell id="dovzdQ19YxwfRrEQ2zp6-1" value="获取图卷积神经网络框架（针对计算操作是全连接层图卷积神经网络)" style="rounded=0;whiteSpace=wrap;html=1;align=center;" vertex="1" parent="1">
          <mxGeometry x="320" y="60" width="200" height="60" as="geometry" />
        </mxCell>
        <mxCell id="dovzdQ19YxwfRrEQ2zp6-2" value="将权重矩阵大W和输入向量大x分别转化为高阶张量W_和x_" style="rounded=0;whiteSpace=wrap;html=1;" vertex="1" parent="1">
          <mxGeometry x="320" y="160" width="200" height="60" as="geometry" />
        </mxCell>
        <mxCell id="dovzdQ19YxwfRrEQ2zp6-4" value="将高阶张量W_进行Tensor-Train张量分解处理" style="rounded=0;whiteSpace=wrap;html=1;" vertex="1" parent="1">
          <mxGeometry x="320" y="260" width="200" height="60" as="geometry" />
        </mxCell>
        <mxCell id="dovzdQ19YxwfRrEQ2zp6-6" value="将图卷积操作中的全连接层替换为Tensor-Train分解层" style="rounded=0;whiteSpace=wrap;html=1;" vertex="1" parent="1">
          <mxGeometry x="318" y="360" width="200" height="60" as="geometry" />
        </mxCell>
        <mxCell id="dovzdQ19YxwfRrEQ2zp6-7" value="采用后向传播的算法对更新后的网络进行训练" style="rounded=0;whiteSpace=wrap;html=1;" vertex="1" parent="1">
          <mxGeometry x="318" y="460" width="200" height="60" as="geometry" />
        </mxCell>
        <mxCell id="dovzdQ19YxwfRrEQ2zp6-8" value="" style="endArrow=classic;html=1;rounded=0;fontFamily=Courier New;" edge="1" parent="1">
          <mxGeometry width="50" height="50" relative="1" as="geometry">
            <mxPoint x="419.5" y="120" as="sourcePoint" />
            <mxPoint x="419.5" y="160" as="targetPoint" />
          </mxGeometry>
        </mxCell>
        <mxCell id="dovzdQ19YxwfRrEQ2zp6-9" value="" style="endArrow=classic;html=1;rounded=0;fontFamily=Courier New;" edge="1" parent="1">
          <mxGeometry width="50" height="50" relative="1" as="geometry">
            <mxPoint x="419.5" y="220" as="sourcePoint" />
            <mxPoint x="419.5" y="260" as="targetPoint" />
          </mxGeometry>
        </mxCell>
        <mxCell id="dovzdQ19YxwfRrEQ2zp6-10" value="" style="endArrow=classic;html=1;rounded=0;fontFamily=Courier New;" edge="1" parent="1">
          <mxGeometry width="50" height="50" relative="1" as="geometry">
            <mxPoint x="419.5" y="320" as="sourcePoint" />
            <mxPoint x="419.5" y="360" as="targetPoint" />
          </mxGeometry>
        </mxCell>
        <mxCell id="dovzdQ19YxwfRrEQ2zp6-11" value="" style="endArrow=classic;html=1;rounded=0;fontFamily=Courier New;" edge="1" parent="1">
          <mxGeometry width="50" height="50" relative="1" as="geometry">
            <mxPoint x="419.5" y="420" as="sourcePoint" />
            <mxPoint x="419.5" y="460" as="targetPoint" />
          </mxGeometry>
        </mxCell>
      </root>
    </mxGraphModel>
  </diagram>
  <diagram id="1D9esu6gF0xUNEVL_uYB" name="reshape">
    <mxGraphModel dx="813" dy="435" grid="1" gridSize="1" guides="1" tooltips="1" connect="1" arrows="1" fold="1" page="1" pageScale="1" pageWidth="827" pageHeight="1169" math="1" shadow="0">
      <root>
        <mxCell id="0" />
        <mxCell id="1" parent="0" />
        <mxCell id="swROk9PxityTE_QEOcyG-2" value="" style="rounded=0;whiteSpace=wrap;html=1;fontFamily=Courier New;fillColor=#999999;" vertex="1" parent="1">
          <mxGeometry x="167" y="334" width="100" height="59" as="geometry" />
        </mxCell>
        <mxCell id="swROk9PxityTE_QEOcyG-3" value="" style="rounded=0;whiteSpace=wrap;html=1;fontFamily=Courier New;" vertex="1" parent="1">
          <mxGeometry x="435" y="483" width="120" height="60" as="geometry" />
        </mxCell>
        <mxCell id="swROk9PxityTE_QEOcyG-4" value="" style="endArrow=none;html=1;fontFamily=Courier New;strokeWidth=5;rounded=0;" edge="1" parent="1">
          <mxGeometry width="50" height="50" relative="1" as="geometry">
            <mxPoint x="180" y="205" as="sourcePoint" />
            <mxPoint x="250" y="205" as="targetPoint" />
          </mxGeometry>
        </mxCell>
        <mxCell id="swROk9PxityTE_QEOcyG-5" value="&lt;font face=&quot;Tahoma&quot; style=&quot;font-size: 23px;&quot;&gt;x&lt;/font&gt;" style="text;html=1;align=center;verticalAlign=middle;resizable=0;points=[];autosize=1;strokeColor=none;fillColor=none;fontFamily=Courier New;" vertex="1" parent="1">
          <mxGeometry x="152" y="180" width="30" height="41" as="geometry" />
        </mxCell>
        <mxCell id="swROk9PxityTE_QEOcyG-6" value="" style="ellipse;whiteSpace=wrap;html=1;aspect=fixed;fontFamily=Courier New;fontSize=23;fillColor=#808080;" vertex="1" parent="1">
          <mxGeometry x="435" y="192" width="34" height="34" as="geometry" />
        </mxCell>
        <mxCell id="swROk9PxityTE_QEOcyG-8" value="" style="ellipse;whiteSpace=wrap;html=1;aspect=fixed;fontFamily=Courier New;fontSize=23;fillColor=#808080;" vertex="1" parent="1">
          <mxGeometry x="776" y="544" width="34" height="34" as="geometry" />
        </mxCell>
        <mxCell id="swROk9PxityTE_QEOcyG-9" value="" style="endArrow=none;html=1;rounded=0;fontFamily=Courier New;fontSize=23;strokeWidth=2;" edge="1" parent="1">
          <mxGeometry width="50" height="50" relative="1" as="geometry">
            <mxPoint x="452" y="194" as="sourcePoint" />
            <mxPoint x="452" y="164" as="targetPoint" />
          </mxGeometry>
        </mxCell>
        <mxCell id="swROk9PxityTE_QEOcyG-10" value="" style="endArrow=none;html=1;rounded=0;fontFamily=Courier New;fontSize=23;strokeWidth=2;strokeColor=#000000;" edge="1" parent="1">
          <mxGeometry width="50" height="50" relative="1" as="geometry">
            <mxPoint x="464" y="199" as="sourcePoint" />
            <mxPoint x="486" y="177" as="targetPoint" />
          </mxGeometry>
        </mxCell>
        <mxCell id="swROk9PxityTE_QEOcyG-12" value="" style="endArrow=none;html=1;rounded=0;fontFamily=Courier New;fontSize=23;strokeWidth=2;" edge="1" parent="1">
          <mxGeometry width="50" height="50" relative="1" as="geometry">
            <mxPoint x="452" y="256" as="sourcePoint" />
            <mxPoint x="452" y="226" as="targetPoint" />
          </mxGeometry>
        </mxCell>
        <mxCell id="swROk9PxityTE_QEOcyG-13" value="" style="endArrow=none;html=1;rounded=0;fontFamily=Courier New;fontSize=23;strokeWidth=2;entryX=0.016;entryY=0.282;entryDx=0;entryDy=0;entryPerimeter=0;" edge="1" parent="1" target="swROk9PxityTE_QEOcyG-6">
          <mxGeometry width="50" height="50" relative="1" as="geometry">
            <mxPoint x="410" y="184" as="sourcePoint" />
            <mxPoint x="436" y="202" as="targetPoint" />
          </mxGeometry>
        </mxCell>
        <mxCell id="swROk9PxityTE_QEOcyG-14" value="" style="endArrow=none;html=1;rounded=0;fontFamily=Courier New;fontSize=23;strokeWidth=2;" edge="1" parent="1">
          <mxGeometry width="50" height="50" relative="1" as="geometry">
            <mxPoint x="487" y="232" as="sourcePoint" />
            <mxPoint x="465" y="220" as="targetPoint" />
          </mxGeometry>
        </mxCell>
        <mxCell id="swROk9PxityTE_QEOcyG-17" value="&lt;span style=&quot;color: rgb(0, 0, 0); font-size: 23px; font-style: normal; font-variant-ligatures: normal; font-variant-caps: normal; font-weight: 400; letter-spacing: normal; orphans: 2; text-align: center; text-indent: 0px; text-transform: none; widows: 2; word-spacing: 0px; -webkit-text-stroke-width: 0px; background-color: rgb(248, 249, 250); text-decoration-thickness: initial; text-decoration-style: initial; text-decoration-color: initial; float: none; display: inline !important;&quot;&gt;&lt;font&gt;$$i_2$$&lt;/font&gt;&lt;/span&gt;" style="text;whiteSpace=wrap;html=1;fontSize=23;fontFamily=Tahoma;" vertex="1" parent="1">
          <mxGeometry x="496" y="128" width="48" height="42" as="geometry" />
        </mxCell>
        <mxCell id="swROk9PxityTE_QEOcyG-18" value="&lt;span style=&quot;text-align: center;&quot;&gt;$$i_3$$&lt;/span&gt;" style="text;whiteSpace=wrap;html=1;fontSize=23;fontFamily=Tahoma;" vertex="1" parent="1">
          <mxGeometry x="499" y="191" width="48" height="42" as="geometry" />
        </mxCell>
        <mxCell id="swROk9PxityTE_QEOcyG-19" value="&lt;span style=&quot;text-align: center;&quot;&gt;$$i_4$$&lt;/span&gt;" style="text;whiteSpace=wrap;html=1;fontSize=23;fontFamily=Tahoma;" vertex="1" parent="1">
          <mxGeometry x="444" y="230" width="48" height="42" as="geometry" />
        </mxCell>
        <mxCell id="swROk9PxityTE_QEOcyG-20" value="&lt;span style=&quot;text-align: center;&quot;&gt;$$i_n$$&lt;/span&gt;" style="text;whiteSpace=wrap;html=1;fontSize=23;fontFamily=Tahoma;" vertex="1" parent="1">
          <mxGeometry x="379" y="135" width="48" height="42" as="geometry" />
        </mxCell>
        <mxCell id="swROk9PxityTE_QEOcyG-21" value="&lt;span style=&quot;color: rgb(0, 0, 0); font-family: &amp;quot;Courier New&amp;quot;; font-style: normal; font-variant-ligatures: normal; font-variant-caps: normal; font-weight: 400; letter-spacing: normal; orphans: 2; text-align: center; text-indent: 0px; text-transform: none; widows: 2; word-spacing: 0px; -webkit-text-stroke-width: 0px; background-color: rgb(248, 249, 250); text-decoration-thickness: initial; text-decoration-style: initial; text-decoration-color: initial; float: none; display: inline !important;&quot;&gt;&lt;font style=&quot;font-size: 20px;&quot;&gt;...&lt;/font&gt;&lt;/span&gt;" style="text;whiteSpace=wrap;html=1;fontSize=23;fontFamily=Courier New;" vertex="1" parent="1">
          <mxGeometry x="389" y="203" width="48" height="42" as="geometry" />
        </mxCell>
        <mxCell id="swROk9PxityTE_QEOcyG-22" value="&lt;font style=&quot;font-size: 15px;&quot;&gt;$$I×J$$&lt;/font&gt;" style="text;html=1;align=center;verticalAlign=middle;resizable=0;points=[];autosize=1;strokeColor=none;fillColor=none;fontSize=20;fontFamily=Tahoma;" vertex="1" parent="1">
          <mxGeometry x="178" y="300" width="75" height="37" as="geometry" />
        </mxCell>
        <mxCell id="swROk9PxityTE_QEOcyG-23" value="W" style="text;html=1;align=center;verticalAlign=middle;resizable=0;points=[];autosize=1;strokeColor=none;fillColor=none;fontSize=20;fontFamily=Tahoma;" vertex="1" parent="1">
          <mxGeometry x="136" y="342" width="37" height="37" as="geometry" />
        </mxCell>
        <mxCell id="swROk9PxityTE_QEOcyG-25" value="&lt;svg style=&quot;vertical-align: -0.339ex;&quot; xmlns:xlink=&quot;http://www.w3.org/1999/xlink&quot; viewBox=&quot;0 -661 781.6 811&quot; role=&quot;img&quot; height=&quot;1.835ex&quot; width=&quot;1.768ex&quot; xmlns=&quot;http://www.w3.org/2000/svg&quot;&gt;&lt;defs&gt;&lt;path d=&quot;M184 600Q184 624 203 642T247 661Q265 661 277 649T290 619Q290 596 270 577T226 557Q211 557 198 567T184 600ZM21 287Q21 295 30 318T54 369T98 420T158 442Q197 442 223 419T250 357Q250 340 236 301T196 196T154 83Q149 61 149 51Q149 26 166 26Q175 26 185 29T208 43T235 78T260 137Q263 149 265 151T282 153Q302 153 302 143Q302 135 293 112T268 61T223 11T161 -11Q129 -11 102 10T74 74Q74 91 79 106T122 220Q160 321 166 341T173 380Q173 404 156 404H154Q124 404 99 371T61 287Q60 286 59 284T58 281T56 279T53 278T49 278T41 278H27Q21 284 21 287Z&quot; id=&quot;MJX-3-TEX-I-1D456&quot;&gt;&lt;/path&gt;&lt;path d=&quot;M213 578L200 573Q186 568 160 563T102 556H83V602H102Q149 604 189 617T245 641T273 663Q275 666 285 666Q294 666 302 660V361L303 61Q310 54 315 52T339 48T401 46H427V0H416Q395 3 257 3Q121 3 100 0H88V46H114Q136 46 152 46T177 47T193 50T201 52T207 57T213 61V578Z&quot; id=&quot;MJX-3-TEX-N-31&quot;&gt;&lt;/path&gt;&lt;/defs&gt;&lt;g transform=&quot;scale(1,-1)&quot; stroke-width=&quot;0&quot; fill=&quot;currentColor&quot; stroke=&quot;currentColor&quot;&gt;&lt;g data-mml-node=&quot;math&quot;&gt;&lt;g data-mml-node=&quot;msub&quot;&gt;&lt;g data-mml-node=&quot;mi&quot;&gt;&lt;use xlink:href=&quot;#MJX-3-TEX-I-1D456&quot; data-c=&quot;1D456&quot;&gt;&lt;/use&gt;&lt;/g&gt;&lt;g transform=&quot;translate(378,-150) scale(0.707)&quot; data-mml-node=&quot;mn&quot;&gt;&lt;use xlink:href=&quot;#MJX-3-TEX-N-31&quot; data-c=&quot;31&quot;&gt;&lt;/use&gt;&lt;/g&gt;&lt;/g&gt;&lt;/g&gt;&lt;/g&gt;&lt;/svg&gt;" style="text;html=1;align=center;verticalAlign=middle;resizable=0;points=[];autosize=1;strokeColor=none;fillColor=none;fontSize=23;fontFamily=Tahoma;fontColor=default;" vertex="1" parent="1">
          <mxGeometry x="432" y="125" width="41" height="41" as="geometry" />
        </mxCell>
        <mxCell id="swROk9PxityTE_QEOcyG-26" value="&lt;svg style=&quot;vertical-align: -0.339ex;&quot; xmlns:xlink=&quot;http://www.w3.org/1999/xlink&quot; viewBox=&quot;0 -661 781.6 811&quot; role=&quot;img&quot; height=&quot;1.835ex&quot; width=&quot;1.768ex&quot; xmlns=&quot;http://www.w3.org/2000/svg&quot;&gt;&lt;defs&gt;&lt;path d=&quot;M184 600Q184 624 203 642T247 661Q265 661 277 649T290 619Q290 596 270 577T226 557Q211 557 198 567T184 600ZM21 287Q21 295 30 318T54 369T98 420T158 442Q197 442 223 419T250 357Q250 340 236 301T196 196T154 83Q149 61 149 51Q149 26 166 26Q175 26 185 29T208 43T235 78T260 137Q263 149 265 151T282 153Q302 153 302 143Q302 135 293 112T268 61T223 11T161 -11Q129 -11 102 10T74 74Q74 91 79 106T122 220Q160 321 166 341T173 380Q173 404 156 404H154Q124 404 99 371T61 287Q60 286 59 284T58 281T56 279T53 278T49 278T41 278H27Q21 284 21 287Z&quot; id=&quot;MJX-3-TEX-I-1D456&quot;&gt;&lt;/path&gt;&lt;path d=&quot;M213 578L200 573Q186 568 160 563T102 556H83V602H102Q149 604 189 617T245 641T273 663Q275 666 285 666Q294 666 302 660V361L303 61Q310 54 315 52T339 48T401 46H427V0H416Q395 3 257 3Q121 3 100 0H88V46H114Q136 46 152 46T177 47T193 50T201 52T207 57T213 61V578Z&quot; id=&quot;MJX-3-TEX-N-31&quot;&gt;&lt;/path&gt;&lt;/defs&gt;&lt;g transform=&quot;scale(1,-1)&quot; stroke-width=&quot;0&quot; fill=&quot;currentColor&quot; stroke=&quot;currentColor&quot;&gt;&lt;g data-mml-node=&quot;math&quot;&gt;&lt;g data-mml-node=&quot;msub&quot;&gt;&lt;g data-mml-node=&quot;mi&quot;&gt;&lt;use xlink:href=&quot;#MJX-3-TEX-I-1D456&quot; data-c=&quot;1D456&quot;&gt;&lt;/use&gt;&lt;/g&gt;&lt;g transform=&quot;translate(378,-150) scale(0.707)&quot; data-mml-node=&quot;mn&quot;&gt;&lt;use xlink:href=&quot;#MJX-3-TEX-N-31&quot; data-c=&quot;31&quot;&gt;&lt;/use&gt;&lt;/g&gt;&lt;/g&gt;&lt;/g&gt;&lt;/g&gt;&lt;/svg&gt;" style="text;html=1;align=center;verticalAlign=middle;resizable=0;points=[];autosize=1;strokeColor=none;fillColor=none;fontSize=23;fontFamily=Tahoma;fontColor=default;" vertex="1" parent="1">
          <mxGeometry x="432" y="125" width="41" height="41" as="geometry" />
        </mxCell>
        <mxCell id="swROk9PxityTE_QEOcyG-28" value="" style="endArrow=classic;html=1;rounded=0;fontFamily=Tahoma;fontSize=23;fontColor=default;strokeColor=#000000;strokeWidth=2;" edge="1" parent="1">
          <mxGeometry width="50" height="50" relative="1" as="geometry">
            <mxPoint x="287" y="207" as="sourcePoint" />
            <mxPoint x="358" y="207" as="targetPoint" />
          </mxGeometry>
        </mxCell>
        <mxCell id="swROk9PxityTE_QEOcyG-30" value="&lt;font style=&quot;font-size: 15px;&quot;&gt;$$reshape$$&lt;/font&gt;" style="text;html=1;align=center;verticalAlign=middle;resizable=0;points=[];autosize=1;strokeColor=none;fillColor=none;fontSize=23;fontFamily=Tahoma;fontColor=default;" vertex="1" parent="1">
          <mxGeometry x="270" y="170" width="104" height="41" as="geometry" />
        </mxCell>
        <mxCell id="swROk9PxityTE_QEOcyG-31" value="" style="endArrow=classic;html=1;rounded=0;fontFamily=Tahoma;fontSize=23;fontColor=default;strokeColor=#000000;strokeWidth=2;" edge="1" parent="1">
          <mxGeometry width="50" height="50" relative="1" as="geometry">
            <mxPoint x="295" y="364.65999999999997" as="sourcePoint" />
            <mxPoint x="366" y="364.65999999999997" as="targetPoint" />
          </mxGeometry>
        </mxCell>
        <mxCell id="swROk9PxityTE_QEOcyG-32" value="$$I$$" style="text;html=1;align=center;verticalAlign=middle;resizable=0;points=[];autosize=1;strokeColor=none;fillColor=none;fontSize=15;fontFamily=Tahoma;fontColor=default;" vertex="1" parent="1">
          <mxGeometry x="186" y="171" width="57" height="31" as="geometry" />
        </mxCell>
        <mxCell id="swROk9PxityTE_QEOcyG-33" value="$$reshape$$&lt;br&gt;" style="text;html=1;align=center;verticalAlign=middle;resizable=0;points=[];autosize=1;strokeColor=none;fillColor=none;fontSize=15;fontFamily=Tahoma;fontColor=default;" vertex="1" parent="1">
          <mxGeometry x="280" y="337" width="104" height="31" as="geometry" />
        </mxCell>
        <mxCell id="swROk9PxityTE_QEOcyG-34" value="" style="ellipse;whiteSpace=wrap;html=1;aspect=fixed;fontFamily=Courier New;fontSize=23;fillColor=#808080;" vertex="1" parent="1">
          <mxGeometry x="436" y="346" width="34" height="34" as="geometry" />
        </mxCell>
        <mxCell id="swROk9PxityTE_QEOcyG-36" value="" style="endArrow=none;html=1;rounded=0;fontFamily=Courier New;fontSize=23;strokeWidth=2;strokeColor=#000000;" edge="1" parent="1">
          <mxGeometry width="50" height="50" relative="1" as="geometry">
            <mxPoint x="465" y="353" as="sourcePoint" />
            <mxPoint x="487" y="331" as="targetPoint" />
          </mxGeometry>
        </mxCell>
        <mxCell id="swROk9PxityTE_QEOcyG-37" value="" style="endArrow=none;html=1;rounded=0;fontFamily=Courier New;fontSize=23;strokeWidth=2;" edge="1" parent="1">
          <mxGeometry width="50" height="50" relative="1" as="geometry">
            <mxPoint x="426" y="394" as="sourcePoint" />
            <mxPoint x="443" y="377.9999999999999" as="targetPoint" />
          </mxGeometry>
        </mxCell>
        <mxCell id="swROk9PxityTE_QEOcyG-38" value="" style="endArrow=none;html=1;rounded=0;fontFamily=Courier New;fontSize=23;strokeWidth=2;entryX=0;entryY=0;entryDx=0;entryDy=0;" edge="1" parent="1" target="swROk9PxityTE_QEOcyG-34" source="swROk9PxityTE_QEOcyG-46">
          <mxGeometry width="50" height="50" relative="1" as="geometry">
            <mxPoint x="411" y="338" as="sourcePoint" />
            <mxPoint x="437" y="356" as="targetPoint" />
          </mxGeometry>
        </mxCell>
        <mxCell id="swROk9PxityTE_QEOcyG-39" value="" style="endArrow=none;html=1;rounded=0;fontFamily=Courier New;fontSize=23;strokeWidth=2;" edge="1" parent="1">
          <mxGeometry width="50" height="50" relative="1" as="geometry">
            <mxPoint x="487" y="393" as="sourcePoint" />
            <mxPoint x="466" y="374" as="targetPoint" />
          </mxGeometry>
        </mxCell>
        <mxCell id="swROk9PxityTE_QEOcyG-43" value="&lt;span style=&quot;text-align: center;&quot;&gt;$$i_n$$&lt;/span&gt;" style="text;whiteSpace=wrap;html=1;fontSize=23;fontFamily=Tahoma;" vertex="1" parent="1">
          <mxGeometry x="490" y="273" width="48" height="42" as="geometry" />
        </mxCell>
        <mxCell id="swROk9PxityTE_QEOcyG-44" value="&lt;span style=&quot;color: rgb(0, 0, 0); font-family: &amp;quot;Courier New&amp;quot;; font-style: normal; font-variant-ligatures: normal; font-variant-caps: normal; font-weight: 400; letter-spacing: normal; orphans: 2; text-align: center; text-indent: 0px; text-transform: none; widows: 2; word-spacing: 0px; -webkit-text-stroke-width: 0px; background-color: rgb(248, 249, 250); text-decoration-thickness: initial; text-decoration-style: initial; text-decoration-color: initial; float: none; display: inline !important;&quot;&gt;&lt;font style=&quot;font-size: 20px;&quot;&gt;...&lt;/font&gt;&lt;/span&gt;" style="text;whiteSpace=wrap;html=1;fontSize=23;fontFamily=Courier New;" vertex="1" parent="1">
          <mxGeometry x="427" y="297" width="48" height="42" as="geometry" />
        </mxCell>
        <mxCell id="swROk9PxityTE_QEOcyG-46" value="&lt;svg style=&quot;vertical-align: -0.339ex;&quot; xmlns:xlink=&quot;http://www.w3.org/1999/xlink&quot; viewBox=&quot;0 -661 781.6 811&quot; role=&quot;img&quot; height=&quot;1.835ex&quot; width=&quot;1.768ex&quot; xmlns=&quot;http://www.w3.org/2000/svg&quot;&gt;&lt;defs&gt;&lt;path d=&quot;M184 600Q184 624 203 642T247 661Q265 661 277 649T290 619Q290 596 270 577T226 557Q211 557 198 567T184 600ZM21 287Q21 295 30 318T54 369T98 420T158 442Q197 442 223 419T250 357Q250 340 236 301T196 196T154 83Q149 61 149 51Q149 26 166 26Q175 26 185 29T208 43T235 78T260 137Q263 149 265 151T282 153Q302 153 302 143Q302 135 293 112T268 61T223 11T161 -11Q129 -11 102 10T74 74Q74 91 79 106T122 220Q160 321 166 341T173 380Q173 404 156 404H154Q124 404 99 371T61 287Q60 286 59 284T58 281T56 279T53 278T49 278T41 278H27Q21 284 21 287Z&quot; id=&quot;MJX-3-TEX-I-1D456&quot;&gt;&lt;/path&gt;&lt;path d=&quot;M213 578L200 573Q186 568 160 563T102 556H83V602H102Q149 604 189 617T245 641T273 663Q275 666 285 666Q294 666 302 660V361L303 61Q310 54 315 52T339 48T401 46H427V0H416Q395 3 257 3Q121 3 100 0H88V46H114Q136 46 152 46T177 47T193 50T201 52T207 57T213 61V578Z&quot; id=&quot;MJX-3-TEX-N-31&quot;&gt;&lt;/path&gt;&lt;/defs&gt;&lt;g transform=&quot;scale(1,-1)&quot; stroke-width=&quot;0&quot; fill=&quot;currentColor&quot; stroke=&quot;currentColor&quot;&gt;&lt;g data-mml-node=&quot;math&quot;&gt;&lt;g data-mml-node=&quot;msub&quot;&gt;&lt;g data-mml-node=&quot;mi&quot;&gt;&lt;use xlink:href=&quot;#MJX-3-TEX-I-1D456&quot; data-c=&quot;1D456&quot;&gt;&lt;/use&gt;&lt;/g&gt;&lt;g transform=&quot;translate(378,-150) scale(0.707)&quot; data-mml-node=&quot;mn&quot;&gt;&lt;use xlink:href=&quot;#MJX-3-TEX-N-31&quot; data-c=&quot;31&quot;&gt;&lt;/use&gt;&lt;/g&gt;&lt;/g&gt;&lt;/g&gt;&lt;/g&gt;&lt;/svg&gt;" style="text;html=1;align=center;verticalAlign=middle;resizable=0;points=[];autosize=1;strokeColor=none;fillColor=none;fontSize=23;fontFamily=Tahoma;fontColor=default;" vertex="1" parent="1">
          <mxGeometry x="382" y="295" width="41" height="41" as="geometry" />
        </mxCell>
        <mxCell id="swROk9PxityTE_QEOcyG-48" value="&lt;span style=&quot;color: rgb(0, 0, 0); font-family: &amp;quot;Courier New&amp;quot;; font-style: normal; font-variant-ligatures: normal; font-variant-caps: normal; font-weight: 400; letter-spacing: normal; orphans: 2; text-align: center; text-indent: 0px; text-transform: none; widows: 2; word-spacing: 0px; -webkit-text-stroke-width: 0px; background-color: rgb(248, 249, 250); text-decoration-thickness: initial; text-decoration-style: initial; text-decoration-color: initial; float: none; display: inline !important;&quot;&gt;&lt;font style=&quot;font-size: 20px;&quot;&gt;...&lt;/font&gt;&lt;/span&gt;" style="text;whiteSpace=wrap;html=1;fontSize=23;fontFamily=Courier New;" vertex="1" parent="1">
          <mxGeometry x="435" y="378" width="48" height="42" as="geometry" />
        </mxCell>
        <mxCell id="swROk9PxityTE_QEOcyG-49" value="&lt;font style=&quot;font-size: 20px;&quot;&gt;$$j_1$$&lt;/font&gt;" style="text;html=1;align=center;verticalAlign=middle;resizable=0;points=[];autosize=1;strokeColor=none;fillColor=none;fontSize=15;fontFamily=Tahoma;fontColor=default;" vertex="1" parent="1">
          <mxGeometry x="361" y="380" width="90" height="37" as="geometry" />
        </mxCell>
        <mxCell id="swROk9PxityTE_QEOcyG-50" value="$$j_m$$" style="text;html=1;align=center;verticalAlign=middle;resizable=0;points=[];autosize=1;strokeColor=none;fillColor=none;fontSize=20;fontFamily=Tahoma;fontColor=default;" vertex="1" parent="1">
          <mxGeometry x="458" y="382" width="96" height="37" as="geometry" />
        </mxCell>
      </root>
    </mxGraphModel>
  </diagram>
  <diagram id="4fCGzo78zcGFLibKgUmF" name="Decomposition">
    <mxGraphModel dx="1185" dy="635" grid="1" gridSize="10" guides="1" tooltips="1" connect="1" arrows="1" fold="1" page="1" pageScale="1" pageWidth="827" pageHeight="1169" math="1" shadow="0">
      <root>
        <mxCell id="0" />
        <mxCell id="1" parent="0" />
        <mxCell id="-J6TetbMNmrIyXnXoDWe-1" value="" style="ellipse;whiteSpace=wrap;html=1;aspect=fixed;fontFamily=Courier New;fontSize=23;fillColor=#808080;" vertex="1" parent="1">
          <mxGeometry x="195" y="313" width="34" height="34" as="geometry" />
        </mxCell>
        <mxCell id="-J6TetbMNmrIyXnXoDWe-2" value="" style="endArrow=none;html=1;rounded=0;fontFamily=Courier New;fontSize=23;strokeWidth=2;strokeColor=#000000;" edge="1" parent="1">
          <mxGeometry width="50" height="50" relative="1" as="geometry">
            <mxPoint x="224" y="320" as="sourcePoint" />
            <mxPoint x="246" y="298" as="targetPoint" />
          </mxGeometry>
        </mxCell>
        <mxCell id="-J6TetbMNmrIyXnXoDWe-3" value="" style="endArrow=none;html=1;rounded=0;fontFamily=Courier New;fontSize=23;strokeWidth=2;" edge="1" parent="1">
          <mxGeometry width="50" height="50" relative="1" as="geometry">
            <mxPoint x="185" y="361" as="sourcePoint" />
            <mxPoint x="202" y="344.9999999999999" as="targetPoint" />
          </mxGeometry>
        </mxCell>
        <mxCell id="-J6TetbMNmrIyXnXoDWe-4" value="" style="endArrow=none;html=1;rounded=0;fontFamily=Courier New;fontSize=23;strokeWidth=2;entryX=0;entryY=0;entryDx=0;entryDy=0;" edge="1" parent="1" source="-J6TetbMNmrIyXnXoDWe-8" target="-J6TetbMNmrIyXnXoDWe-1">
          <mxGeometry width="50" height="50" relative="1" as="geometry">
            <mxPoint x="170" y="305" as="sourcePoint" />
            <mxPoint x="196" y="323" as="targetPoint" />
          </mxGeometry>
        </mxCell>
        <mxCell id="-J6TetbMNmrIyXnXoDWe-5" value="" style="endArrow=none;html=1;rounded=0;fontFamily=Courier New;fontSize=23;strokeWidth=2;" edge="1" parent="1">
          <mxGeometry width="50" height="50" relative="1" as="geometry">
            <mxPoint x="246" y="360" as="sourcePoint" />
            <mxPoint x="225" y="341" as="targetPoint" />
          </mxGeometry>
        </mxCell>
        <mxCell id="-J6TetbMNmrIyXnXoDWe-6" value="&lt;span style=&quot;text-align: center;&quot;&gt;$$i_n$$&lt;/span&gt;" style="text;whiteSpace=wrap;html=1;fontSize=23;fontFamily=Tahoma;" vertex="1" parent="1">
          <mxGeometry x="249" y="240" width="48" height="42" as="geometry" />
        </mxCell>
        <mxCell id="-J6TetbMNmrIyXnXoDWe-7" value="&lt;span style=&quot;color: rgb(0, 0, 0); font-family: &amp;quot;Courier New&amp;quot;; font-style: normal; font-variant-ligatures: normal; font-variant-caps: normal; font-weight: 400; letter-spacing: normal; orphans: 2; text-align: center; text-indent: 0px; text-transform: none; widows: 2; word-spacing: 0px; -webkit-text-stroke-width: 0px; background-color: rgb(248, 249, 250); text-decoration-thickness: initial; text-decoration-style: initial; text-decoration-color: initial; float: none; display: inline !important;&quot;&gt;&lt;font style=&quot;font-size: 20px;&quot;&gt;...&lt;/font&gt;&lt;/span&gt;" style="text;whiteSpace=wrap;html=1;fontSize=23;fontFamily=Courier New;" vertex="1" parent="1">
          <mxGeometry x="186" y="264" width="48" height="42" as="geometry" />
        </mxCell>
        <mxCell id="-J6TetbMNmrIyXnXoDWe-8" value="&lt;svg style=&quot;vertical-align: -0.339ex;&quot; xmlns:xlink=&quot;http://www.w3.org/1999/xlink&quot; viewBox=&quot;0 -661 781.6 811&quot; role=&quot;img&quot; height=&quot;1.835ex&quot; width=&quot;1.768ex&quot; xmlns=&quot;http://www.w3.org/2000/svg&quot;&gt;&lt;defs&gt;&lt;path d=&quot;M184 600Q184 624 203 642T247 661Q265 661 277 649T290 619Q290 596 270 577T226 557Q211 557 198 567T184 600ZM21 287Q21 295 30 318T54 369T98 420T158 442Q197 442 223 419T250 357Q250 340 236 301T196 196T154 83Q149 61 149 51Q149 26 166 26Q175 26 185 29T208 43T235 78T260 137Q263 149 265 151T282 153Q302 153 302 143Q302 135 293 112T268 61T223 11T161 -11Q129 -11 102 10T74 74Q74 91 79 106T122 220Q160 321 166 341T173 380Q173 404 156 404H154Q124 404 99 371T61 287Q60 286 59 284T58 281T56 279T53 278T49 278T41 278H27Q21 284 21 287Z&quot; id=&quot;MJX-3-TEX-I-1D456&quot;&gt;&lt;/path&gt;&lt;path d=&quot;M213 578L200 573Q186 568 160 563T102 556H83V602H102Q149 604 189 617T245 641T273 663Q275 666 285 666Q294 666 302 660V361L303 61Q310 54 315 52T339 48T401 46H427V0H416Q395 3 257 3Q121 3 100 0H88V46H114Q136 46 152 46T177 47T193 50T201 52T207 57T213 61V578Z&quot; id=&quot;MJX-3-TEX-N-31&quot;&gt;&lt;/path&gt;&lt;/defs&gt;&lt;g transform=&quot;scale(1,-1)&quot; stroke-width=&quot;0&quot; fill=&quot;currentColor&quot; stroke=&quot;currentColor&quot;&gt;&lt;g data-mml-node=&quot;math&quot;&gt;&lt;g data-mml-node=&quot;msub&quot;&gt;&lt;g data-mml-node=&quot;mi&quot;&gt;&lt;use xlink:href=&quot;#MJX-3-TEX-I-1D456&quot; data-c=&quot;1D456&quot;&gt;&lt;/use&gt;&lt;/g&gt;&lt;g transform=&quot;translate(378,-150) scale(0.707)&quot; data-mml-node=&quot;mn&quot;&gt;&lt;use xlink:href=&quot;#MJX-3-TEX-N-31&quot; data-c=&quot;31&quot;&gt;&lt;/use&gt;&lt;/g&gt;&lt;/g&gt;&lt;/g&gt;&lt;/g&gt;&lt;/svg&gt;" style="text;html=1;align=center;verticalAlign=middle;resizable=0;points=[];autosize=1;strokeColor=none;fillColor=none;fontSize=23;fontFamily=Tahoma;fontColor=default;" vertex="1" parent="1">
          <mxGeometry x="141" y="262" width="41" height="41" as="geometry" />
        </mxCell>
        <mxCell id="-J6TetbMNmrIyXnXoDWe-9" value="&lt;span style=&quot;color: rgb(0, 0, 0); font-family: &amp;quot;Courier New&amp;quot;; font-style: normal; font-variant-ligatures: normal; font-variant-caps: normal; font-weight: 400; letter-spacing: normal; orphans: 2; text-align: center; text-indent: 0px; text-transform: none; widows: 2; word-spacing: 0px; -webkit-text-stroke-width: 0px; background-color: rgb(248, 249, 250); text-decoration-thickness: initial; text-decoration-style: initial; text-decoration-color: initial; float: none; display: inline !important;&quot;&gt;&lt;font style=&quot;font-size: 20px;&quot;&gt;...&lt;/font&gt;&lt;/span&gt;" style="text;whiteSpace=wrap;html=1;fontSize=23;fontFamily=Courier New;" vertex="1" parent="1">
          <mxGeometry x="194" y="345" width="48" height="42" as="geometry" />
        </mxCell>
        <mxCell id="-J6TetbMNmrIyXnXoDWe-10" value="&lt;font style=&quot;font-size: 20px;&quot;&gt;$$j_1$$&lt;/font&gt;" style="text;html=1;align=center;verticalAlign=middle;resizable=0;points=[];autosize=1;strokeColor=none;fillColor=none;fontSize=15;fontFamily=Tahoma;fontColor=default;" vertex="1" parent="1">
          <mxGeometry x="120" y="347" width="90" height="37" as="geometry" />
        </mxCell>
        <mxCell id="-J6TetbMNmrIyXnXoDWe-11" value="$$j_m$$" style="text;html=1;align=center;verticalAlign=middle;resizable=0;points=[];autosize=1;strokeColor=none;fillColor=none;fontSize=20;fontFamily=Tahoma;fontColor=default;" vertex="1" parent="1">
          <mxGeometry x="217" y="349" width="96" height="37" as="geometry" />
        </mxCell>
        <mxCell id="-J6TetbMNmrIyXnXoDWe-12" value="" style="endArrow=classic;html=1;rounded=0;fontFamily=Tahoma;fontSize=20;fontColor=default;strokeColor=#000000;strokeWidth=2;" edge="1" parent="1">
          <mxGeometry width="50" height="50" relative="1" as="geometry">
            <mxPoint x="300" y="330" as="sourcePoint" />
            <mxPoint x="380" y="330" as="targetPoint" />
          </mxGeometry>
        </mxCell>
        <mxCell id="-J6TetbMNmrIyXnXoDWe-13" value="$$TTD$$" style="text;html=1;align=center;verticalAlign=middle;resizable=0;points=[];autosize=1;strokeColor=none;fillColor=none;fontSize=20;fontFamily=Tahoma;fontColor=default;" vertex="1" parent="1">
          <mxGeometry x="290" y="290" width="100" height="40" as="geometry" />
        </mxCell>
        <mxCell id="-J6TetbMNmrIyXnXoDWe-16" style="edgeStyle=orthogonalEdgeStyle;rounded=0;orthogonalLoop=1;jettySize=auto;html=1;fontFamily=Tahoma;fontSize=20;fontColor=default;strokeColor=#000000;strokeWidth=2;endArrow=none;endFill=0;" edge="1" parent="1" source="-J6TetbMNmrIyXnXoDWe-14">
          <mxGeometry relative="1" as="geometry">
            <mxPoint x="489.5000000000002" y="380" as="targetPoint" />
          </mxGeometry>
        </mxCell>
        <mxCell id="-J6TetbMNmrIyXnXoDWe-17" style="edgeStyle=orthogonalEdgeStyle;rounded=0;orthogonalLoop=1;jettySize=auto;html=1;fontFamily=Tahoma;fontSize=20;fontColor=default;endArrow=none;endFill=0;strokeColor=#000000;strokeWidth=2;" edge="1" parent="1" source="-J6TetbMNmrIyXnXoDWe-14">
          <mxGeometry relative="1" as="geometry">
            <mxPoint x="489.5000000000002" y="280" as="targetPoint" />
          </mxGeometry>
        </mxCell>
        <mxCell id="-J6TetbMNmrIyXnXoDWe-18" style="edgeStyle=orthogonalEdgeStyle;rounded=0;orthogonalLoop=1;jettySize=auto;html=1;fontFamily=Tahoma;fontSize=20;fontColor=default;endArrow=none;endFill=0;strokeColor=#000000;strokeWidth=2;" edge="1" parent="1" source="-J6TetbMNmrIyXnXoDWe-14">
          <mxGeometry relative="1" as="geometry">
            <mxPoint x="530" y="330.5000000000001" as="targetPoint" />
          </mxGeometry>
        </mxCell>
        <mxCell id="-J6TetbMNmrIyXnXoDWe-19" style="edgeStyle=orthogonalEdgeStyle;rounded=0;orthogonalLoop=1;jettySize=auto;html=1;fontFamily=Tahoma;fontSize=20;fontColor=default;endArrow=none;endFill=0;strokeColor=#000000;strokeWidth=2;" edge="1" parent="1" source="-J6TetbMNmrIyXnXoDWe-14">
          <mxGeometry relative="1" as="geometry">
            <mxPoint x="450" y="330.5000000000001" as="targetPoint" />
          </mxGeometry>
        </mxCell>
        <mxCell id="-J6TetbMNmrIyXnXoDWe-14" value="" style="ellipse;whiteSpace=wrap;html=1;aspect=fixed;fontFamily=Courier New;fontSize=23;fillColor=#808080;" vertex="1" parent="1">
          <mxGeometry x="470" y="311" width="39" height="39" as="geometry" />
        </mxCell>
        <mxCell id="-J6TetbMNmrIyXnXoDWe-35" style="edgeStyle=orthogonalEdgeStyle;rounded=0;orthogonalLoop=1;jettySize=auto;html=1;fontFamily=Tahoma;fontSize=20;fontColor=default;strokeColor=#000000;strokeWidth=2;endArrow=none;endFill=0;" edge="1" parent="1" source="-J6TetbMNmrIyXnXoDWe-39">
          <mxGeometry relative="1" as="geometry">
            <mxPoint x="569.5000000000002" y="380" as="targetPoint" />
          </mxGeometry>
        </mxCell>
        <mxCell id="-J6TetbMNmrIyXnXoDWe-36" style="edgeStyle=orthogonalEdgeStyle;rounded=0;orthogonalLoop=1;jettySize=auto;html=1;fontFamily=Tahoma;fontSize=20;fontColor=default;endArrow=none;endFill=0;strokeColor=#000000;strokeWidth=2;" edge="1" parent="1" source="-J6TetbMNmrIyXnXoDWe-39">
          <mxGeometry relative="1" as="geometry">
            <mxPoint x="569.5000000000002" y="280" as="targetPoint" />
          </mxGeometry>
        </mxCell>
        <mxCell id="-J6TetbMNmrIyXnXoDWe-37" style="edgeStyle=orthogonalEdgeStyle;rounded=0;orthogonalLoop=1;jettySize=auto;html=1;fontFamily=Tahoma;fontSize=20;fontColor=default;endArrow=none;endFill=0;strokeColor=#000000;strokeWidth=2;" edge="1" parent="1" source="-J6TetbMNmrIyXnXoDWe-39">
          <mxGeometry relative="1" as="geometry">
            <mxPoint x="610" y="330.5000000000001" as="targetPoint" />
          </mxGeometry>
        </mxCell>
        <mxCell id="-J6TetbMNmrIyXnXoDWe-38" style="edgeStyle=orthogonalEdgeStyle;rounded=0;orthogonalLoop=1;jettySize=auto;html=1;fontFamily=Tahoma;fontSize=20;fontColor=default;endArrow=none;endFill=0;strokeColor=#000000;strokeWidth=2;" edge="1" parent="1" source="-J6TetbMNmrIyXnXoDWe-39">
          <mxGeometry relative="1" as="geometry">
            <mxPoint x="530" y="330.5000000000001" as="targetPoint" />
          </mxGeometry>
        </mxCell>
        <mxCell id="-J6TetbMNmrIyXnXoDWe-39" value="" style="ellipse;whiteSpace=wrap;html=1;aspect=fixed;fontFamily=Courier New;fontSize=23;fillColor=#808080;" vertex="1" parent="1">
          <mxGeometry x="550" y="311" width="39" height="39" as="geometry" />
        </mxCell>
        <mxCell id="-J6TetbMNmrIyXnXoDWe-40" style="edgeStyle=orthogonalEdgeStyle;rounded=0;orthogonalLoop=1;jettySize=auto;html=1;fontFamily=Tahoma;fontSize=20;fontColor=default;strokeColor=#000000;strokeWidth=2;endArrow=none;endFill=0;" edge="1" parent="1" source="-J6TetbMNmrIyXnXoDWe-44">
          <mxGeometry relative="1" as="geometry">
            <mxPoint x="699.5000000000002" y="380.5" as="targetPoint" />
          </mxGeometry>
        </mxCell>
        <mxCell id="-J6TetbMNmrIyXnXoDWe-41" style="edgeStyle=orthogonalEdgeStyle;rounded=0;orthogonalLoop=1;jettySize=auto;html=1;fontFamily=Tahoma;fontSize=20;fontColor=default;endArrow=none;endFill=0;strokeColor=#000000;strokeWidth=2;" edge="1" parent="1" source="-J6TetbMNmrIyXnXoDWe-44">
          <mxGeometry relative="1" as="geometry">
            <mxPoint x="699.5000000000002" y="280.5" as="targetPoint" />
          </mxGeometry>
        </mxCell>
        <mxCell id="-J6TetbMNmrIyXnXoDWe-42" style="edgeStyle=orthogonalEdgeStyle;rounded=0;orthogonalLoop=1;jettySize=auto;html=1;fontFamily=Tahoma;fontSize=20;fontColor=default;endArrow=none;endFill=0;strokeColor=#000000;strokeWidth=2;" edge="1" parent="1" source="-J6TetbMNmrIyXnXoDWe-44">
          <mxGeometry relative="1" as="geometry">
            <mxPoint x="740" y="331.0000000000001" as="targetPoint" />
          </mxGeometry>
        </mxCell>
        <mxCell id="-J6TetbMNmrIyXnXoDWe-43" style="edgeStyle=orthogonalEdgeStyle;rounded=0;orthogonalLoop=1;jettySize=auto;html=1;fontFamily=Tahoma;fontSize=20;fontColor=default;endArrow=none;endFill=0;strokeColor=#000000;strokeWidth=2;" edge="1" parent="1" source="-J6TetbMNmrIyXnXoDWe-44">
          <mxGeometry relative="1" as="geometry">
            <mxPoint x="660" y="331.0000000000001" as="targetPoint" />
          </mxGeometry>
        </mxCell>
        <mxCell id="-J6TetbMNmrIyXnXoDWe-44" value="" style="ellipse;whiteSpace=wrap;html=1;aspect=fixed;fontFamily=Courier New;fontSize=23;fillColor=#808080;" vertex="1" parent="1">
          <mxGeometry x="680" y="311.5" width="39" height="39" as="geometry" />
        </mxCell>
        <mxCell id="-J6TetbMNmrIyXnXoDWe-46" value="$$r$$" style="text;html=1;align=center;verticalAlign=middle;resizable=0;points=[];autosize=1;strokeColor=none;fillColor=none;fontSize=20;fontFamily=Tahoma;fontColor=default;" vertex="1" parent="1">
          <mxGeometry x="495" y="300" width="70" height="40" as="geometry" />
        </mxCell>
        <mxCell id="-J6TetbMNmrIyXnXoDWe-47" value="$$r$$" style="text;html=1;align=center;verticalAlign=middle;resizable=0;points=[];autosize=1;strokeColor=none;fillColor=none;fontSize=20;fontFamily=Tahoma;fontColor=default;" vertex="1" parent="1">
          <mxGeometry x="570" y="300" width="70" height="40" as="geometry" />
        </mxCell>
        <mxCell id="-J6TetbMNmrIyXnXoDWe-48" value="$$r$$" style="text;html=1;align=center;verticalAlign=middle;resizable=0;points=[];autosize=1;strokeColor=none;fillColor=none;fontSize=20;fontFamily=Tahoma;fontColor=default;" vertex="1" parent="1">
          <mxGeometry x="630" y="300" width="70" height="40" as="geometry" />
        </mxCell>
        <mxCell id="-J6TetbMNmrIyXnXoDWe-50" value="$$...$$" style="text;html=1;align=center;verticalAlign=middle;resizable=0;points=[];autosize=1;strokeColor=none;fillColor=none;fontSize=20;fontFamily=Tahoma;fontColor=default;" vertex="1" parent="1">
          <mxGeometry x="589" y="303" width="90" height="40" as="geometry" />
        </mxCell>
        <mxCell id="-J6TetbMNmrIyXnXoDWe-51" value="$$i_2$$" style="text;html=1;align=center;verticalAlign=middle;resizable=0;points=[];autosize=1;strokeColor=none;fillColor=none;fontSize=20;fontFamily=Tahoma;fontColor=default;" vertex="1" parent="1">
          <mxGeometry x="524.5" y="242" width="90" height="40" as="geometry" />
        </mxCell>
        <mxCell id="-J6TetbMNmrIyXnXoDWe-52" value="$$i_1$$" style="text;html=1;align=center;verticalAlign=middle;resizable=0;points=[];autosize=1;strokeColor=none;fillColor=none;fontSize=20;fontFamily=Tahoma;fontColor=default;" vertex="1" parent="1">
          <mxGeometry x="445" y="240" width="90" height="40" as="geometry" />
        </mxCell>
        <mxCell id="-J6TetbMNmrIyXnXoDWe-54" value="$$i_n$$" style="text;html=1;align=center;verticalAlign=middle;resizable=0;points=[];autosize=1;strokeColor=none;fillColor=none;fontSize=20;fontFamily=Tahoma;fontColor=default;" vertex="1" parent="1">
          <mxGeometry x="654.5" y="242" width="90" height="40" as="geometry" />
        </mxCell>
        <mxCell id="-J6TetbMNmrIyXnXoDWe-55" value="$$j_1$$" style="text;html=1;align=center;verticalAlign=middle;resizable=0;points=[];autosize=1;strokeColor=none;fillColor=none;fontSize=20;fontFamily=Tahoma;fontColor=default;" vertex="1" parent="1">
          <mxGeometry x="444.5" y="370" width="90" height="40" as="geometry" />
        </mxCell>
        <mxCell id="-J6TetbMNmrIyXnXoDWe-57" value="$$j_2$$" style="text;html=1;align=center;verticalAlign=middle;resizable=0;points=[];autosize=1;strokeColor=none;fillColor=none;fontSize=20;fontFamily=Tahoma;fontColor=default;" vertex="1" parent="1">
          <mxGeometry x="525" y="370" width="90" height="40" as="geometry" />
        </mxCell>
        <mxCell id="-J6TetbMNmrIyXnXoDWe-58" value="$$j_m$$" style="text;html=1;align=center;verticalAlign=middle;resizable=0;points=[];autosize=1;strokeColor=none;fillColor=none;fontSize=20;fontFamily=Tahoma;fontColor=default;" vertex="1" parent="1">
          <mxGeometry x="649.5" y="370" width="100" height="40" as="geometry" />
        </mxCell>
        <mxCell id="-J6TetbMNmrIyXnXoDWe-59" value="$$n=m$$" style="text;html=1;align=center;verticalAlign=middle;resizable=0;points=[];autosize=1;strokeColor=none;fillColor=none;fontSize=20;fontFamily=Tahoma;fontColor=default;" vertex="1" parent="1">
          <mxGeometry x="285" y="330" width="110" height="40" as="geometry" />
        </mxCell>
      </root>
    </mxGraphModel>
  </diagram>
  <diagram id="sw5N1mc7r6LdLQxah4WA" name="替换GCN">
    <mxGraphModel dx="1422" dy="762" grid="1" gridSize="10" guides="1" tooltips="1" connect="1" arrows="1" fold="1" page="1" pageScale="1" pageWidth="827" pageHeight="1169" math="0" shadow="0">
      <root>
        <mxCell id="0" />
        <mxCell id="1" parent="0" />
      </root>
    </mxGraphModel>
  </diagram>
</mxfile>
